<svg xmlns="http://www.w3.org/2000/svg" viewBox="0 0 267.054 488.252"><defs><style>.cls-1{fill:#822a3d;}.cls-2{fill:#9b295d;}.cls-3,.cls-4{fill:#ff2c82;}.cls-4{stroke:#e6007e;stroke-miterlimit:10;stroke-width:6px;}.cls-5{fill:#fff;}</style></defs><g id="Layer_2" data-name="Layer 2"><g id="Layer_5" data-name="Layer 5"><path class="cls-1" d="M150.789,302.291c4.272,3,9.012,5.321,13.213,8.425a177.651,177.651,0,0,1,18,15.319c1.045,1.013,7.122,8.082,5.745,17.617a21.337,21.337,0,0,1-4.405,9.958c-5.856,7.693-10.744,16.125-16.949,23.54-5.272,6.3-17.936,17.029-22.864,23.6-3.245,4.328-9.452,13.544-10.695,18.808-.8,3.37-1.381,11.091.738,13.829,3.107,4.017,14.422,4.966,19.361,6.147,9.267,2.215,28.842,2.428,37.616,6.146,3.033,1.286,8.721,5.142,10.571,7.867,2,2.949,3.607,10.206,3.688,13.768.118,5.159-4.425,20.16-4.425,20.16s6.569-7.046,8.113-9.834a65.6,65.6,0,0,0,5.655-16.964c.569-4.082.431-12.519-.738-16.472s-11.108-11.174-8.359-14.26c3.053-3.426,12.893,4.989,16.795,7.4a95.187,95.187,0,0,1,14.183,11.774c2.415,2.555,6.8,8.158,8.359,11.309,1.077,2.18,2.7,9.343,2.7,9.343s.68-18.785-.737-24.832c-1.142-4.873-5.365-14.182-8.359-18.193-3.128-4.188-11.136-11.284-15.735-13.768-8.87-4.79-35.817-1.2-38.845-10.817-.814-2.582,4.882-6.536,6.884-8.359,3.239-2.951,11.065-7.122,14.5-9.834,3.724-2.937,11.695-8.648,14.014-12.785,1.745-3.112,2.669-10.446,2.7-14.014.038-3.776-1.551-11.248-2.564-14.885a3.238,3.238,0,0,0-.14-.358c-2.872-6.176-8.724-18.645-13.012-23.938-4.082-5.04-14.389-13.163-19.723-16.851-5.2-3.6-8.3-9-6.957-14.171,1.3-5.015,5.941-7.3,6.7-7.659a15.224,15.224,0,0,0,6.51-3.447,15.046,15.046,0,0,0,3.256-4.213l-.873-67.212-44.617-1.149c-.085,44.234-.766,71.234-.766,71.234a6.458,6.458,0,0,1-1.425,4.4c-1.171,1.292-2.279,1.07-3.372,1.9-2.9,2.212-1.761,8.852-.458,12.458A19.178,19.178,0,0,0,150.789,302.291Z"/></g><g id="Layer_2-2" data-name="Layer 2"><path class="cls-2" d="M0,131.931V119.462a8.045,8.045,0,0,0,.152-.943A137.883,137.883,0,0,1,3.026,96.084c4.1-19.259,11.83-36.848,24.118-52.322a107.754,107.754,0,0,1,33.769-28.28A109.581,109.581,0,0,1,109.019,2.675a116.453,116.453,0,0,1,24.573,1.751A132.441,132.441,0,0,1,176.108,19.79a156.056,156.056,0,0,1,49.033,43.528,167.153,167.153,0,0,1,25.821,51.108,162.283,162.283,0,0,1,7.048,42.184,143.432,143.432,0,0,1-1.108,22.716,131.66,131.66,0,0,1-14.346,45.96,113.094,113.094,0,0,1-25.671,32.433,107.226,107.226,0,0,1-59.637,25.848c-2.38.235-4.765.424-7.147.634H139.55c-.393-.054-.785-.142-1.18-.157a97.428,97.428,0,0,1-10.72-1.073,132.548,132.548,0,0,1-44.027-14.935,154.754,154.754,0,0,1-47.732-40.524,166.361,166.361,0,0,1-30-59.008A155.226,155.226,0,0,1,.629,139.8C.407,137.177.209,134.554,0,131.931Z"/><path class="cls-3" d="M8.969,129.337V116.868a8.3,8.3,0,0,0,.152-.943A137.773,137.773,0,0,1,12,93.49c4.1-19.259,11.829-36.848,24.117-52.322a107.754,107.754,0,0,1,33.769-28.28A109.571,109.571,0,0,1,117.988.081a116.458,116.458,0,0,1,24.573,1.751A132.439,132.439,0,0,1,185.077,17.2,156.071,156.071,0,0,1,234.11,60.724a167.156,167.156,0,0,1,25.82,51.107,162.3,162.3,0,0,1,7.049,42.185,143.652,143.652,0,0,1-1.108,22.715,131.68,131.68,0,0,1-14.346,45.961,113.111,113.111,0,0,1-25.671,32.433,107.232,107.232,0,0,1-59.638,25.848c-2.38.235-4.764.424-7.147.634h-10.55c-.393-.054-.785-.142-1.18-.157a97.47,97.47,0,0,1-10.721-1.073,132.555,132.555,0,0,1-44.027-14.935A154.739,154.739,0,0,1,44.86,224.918a166.347,166.347,0,0,1-30-59.008,155.224,155.224,0,0,1-5.262-28.7C9.375,134.583,9.178,131.96,8.969,129.337Z"/><path class="cls-4" d="M62.385,132.618V124.9a5.088,5.088,0,0,0,.094-.583,85.387,85.387,0,0,1,1.779-13.892,77,77,0,0,1,14.934-32.4A66.722,66.722,0,0,1,100.1,60.513a67.863,67.863,0,0,1,29.787-7.93A72.055,72.055,0,0,1,145.1,53.667a82.035,82.035,0,0,1,26.326,9.513,96.643,96.643,0,0,1,30.361,26.953,103.491,103.491,0,0,1,15.988,31.646,100.5,100.5,0,0,1,4.365,26.121,88.913,88.913,0,0,1-.687,14.065,81.511,81.511,0,0,1-8.883,28.459,70.007,70.007,0,0,1-15.895,20.082,66.395,66.395,0,0,1-36.928,16c-1.473.146-2.95.263-4.425.393h-6.533a7.242,7.242,0,0,0-.731-.1,60.5,60.5,0,0,1-6.638-.665,82.088,82.088,0,0,1-27.261-9.247A95.829,95.829,0,0,1,84.609,191.8a102.986,102.986,0,0,1-18.576-36.538,96.139,96.139,0,0,1-3.259-17.774C62.637,135.867,62.514,134.242,62.385,132.618Z"/></g><g id="Layer_1-2" data-name="Layer 1"><path class="cls-5" d="M197.573,141.648c-.01-.917-.348-1.352-1.254-1.4-1.011-.056-2.021-.146-3.031-.225-3.441-.269-6.882-.525-10.321-.813-4.922-.413-9.841-.858-14.763-1.273-5.017-.423-10.037-.809-15.053-1.253-.868-.077-1.095.3-1.04,1.029l1.675,95.555a11.3,11.3,0,0,0,.063,1.235c.034.269-.022.657.279.756.348.114.415-.307.6-.5a2.382,2.382,0,0,0,.213-.315l20.088-29.973c.731-1.09.842-1.092,1.5.011q5.217,8.748,10.429,17.5,6.065,10.182,12.124,20.368h.191Z"/><path class="cls-5" d="M108.111,68.993a13.828,13.828,0,0,1,4.633-.153,50.693,50.693,0,0,1,8.983,1.521,33.8,33.8,0,0,1,9.1,4.013,39.152,39.152,0,0,1,17.362,22,31.847,31.847,0,0,1-2.206,25.454c-1.9,3.543-4.765,6.272-7.627,9.046-1.906,1.848-3.926,1.493-6.08,1.307q-5.157-.443-10.315-.88c-3.532-.3-7.069-.557-10.6-.914-2.318-.236-2.338-.3-2.31-2.629"/><path class="cls-5" d="M151.079,74.84c-.012-1.258.106-1.384,1.358-1.287,11.929.928,22.583,4.969,31.6,13,7.242,6.452,11.154,14.619,12.449,24.154.355,2.618.359,5.25.478,7.875.177,3.9.18,7.8.258,11.7.027,1.331.242,2.655.181,3.991,0,.667-.039,1.336.01,2,.065.868-.269,1.225-1.15,1.142-1.828-.171-3.66-.3-5.49-.453q-5.158-.435-10.315-.878-6.435-.544-12.871-1.084c-3.376-.28-6.753-.548-10.13-.824-1.515-.125-3.028-.274-4.544-.381-.8-.057-.862-.581-.87-1.2"/><path class="cls-5" d="M109.251,134.474c-.014-1.249.164-1.365,1.366-1.26,3.656.322,7.315.616,10.973.924q6.859.579,13.717,1.169a2.864,2.864,0,0,1,1.63.686,37.279,37.279,0,0,1,13.452,24.09,31.642,31.642,0,0,1-4.32,21.477,27.48,27.48,0,0,1-14.2,11.673,32.9,32.9,0,0,1-12.175,2.069,34.873,34.873,0,0,1-8.222-.919c-.933-.189-1.274-.612-1.3-1.607"/><path class="cls-5" d="M154.763,303.065c4.272,3.006,9.012,5.321,13.213,8.425a177.661,177.661,0,0,1,18,15.32c1.045,1.013,7.122,8.081,5.744,17.617a21.328,21.328,0,0,1-4.4,9.957c-5.856,7.694-10.744,16.125-16.949,23.54-5.272,6.3-17.937,17.029-22.864,23.6-3.245,4.328-9.452,13.544-10.695,18.808-.8,3.37-1.381,11.091.738,13.83,3.107,4.017,14.422,4.965,19.361,6.146,9.267,2.216,28.842,2.428,37.615,6.146,3.034,1.286,8.722,5.142,10.572,7.868,2,2.948,3.607,10.2,3.688,13.768.118,5.158-4.425,20.16-4.425,20.16s6.569-7.046,8.113-9.835a65.6,65.6,0,0,0,5.655-16.964c.569-4.082.431-12.519-.738-16.472s-11.108-11.174-8.359-14.259c3.053-3.426,12.893,4.988,16.8,7.4A95.248,95.248,0,0,1,240.006,449.9c2.415,2.555,6.8,8.158,8.359,11.31,1.077,2.179,2.7,9.342,2.7,9.342s.68-18.784-.737-24.831c-1.143-4.874-5.365-14.183-8.36-18.193-3.127-4.189-11.135-11.284-15.734-13.768-8.87-4.791-35.817-1.2-38.845-10.818-.814-2.582,4.882-6.536,6.884-8.359,3.238-2.95,11.065-7.122,14.505-9.834,3.724-2.936,11.695-8.648,14.014-12.785,1.745-3.112,2.668-10.446,2.7-14.013.038-3.776-1.551-11.248-2.564-14.886a3.3,3.3,0,0,0-.14-.357c-2.872-6.177-8.724-18.646-13.012-23.939-4.082-5.04-14.389-13.163-19.723-16.851-5.2-3.6-8.3-9-6.958-14.17,1.3-5.016,5.942-7.3,6.7-7.66a15.224,15.224,0,0,0,6.51-3.447,15.051,15.051,0,0,0,3.255-4.212q-.435-33.608-.872-67.213l-44.617-1.149c-.085,44.234-.766,71.234-.766,71.234a6.458,6.458,0,0,1-1.425,4.4c-1.171,1.292-2.279,1.07-3.372,1.9-2.9,2.212-1.761,8.852-.458,12.458A19.178,19.178,0,0,0,154.763,303.065Z"/></g></g></svg>