<?xml version="1.0" standalone="no"?>
<!DOCTYPE svg PUBLIC "-//W3C//DTD SVG 20010904//EN"
 "http://www.w3.org/TR/2001/REC-SVG-20010904/DTD/svg10.dtd">
<svg version="1.0" xmlns="http://www.w3.org/2000/svg"
 width="500.000000pt" height="500.000000pt" viewBox="0 0 500.000000 500.000000"
 preserveAspectRatio="xMidYMid meet">
<metadata>
Created by potrace 1.14, written by Peter Selinger 2001-2017
</metadata>
<g transform="translate(0.000000,500.000000) scale(0.100000,-0.100000)"
fill="#000000" stroke="none">
<path d="M2160 4921 c-121 -26 -253 -67 -338 -107 -317 -146 -545 -443 -634
-828 -26 -115 -36 -372 -19 -501 35 -266 138 -526 301 -758 81 -116 257 -293
375 -375 97 -69 271 -158 375 -192 85 -29 248 -60 309 -60 l48 0 7 -42 c12
-77 47 -121 143 -181 49 -31 126 -89 173 -129 102 -87 130 -135 130 -220 0
-55 -3 -62 -76 -170 -103 -151 -131 -186 -250 -303 -101 -100 -168 -188 -204
-268 -27 -59 -27 -160 -1 -186 21 -21 94 -45 114 -38 7 2 -2 7 -19 11 -51 11
-67 37 -66 105 1 105 61 201 237 381 116 118 281 333 305 395 16 41 11 116 -9
160 -24 53 -142 161 -261 240 -108 72 -133 95 -155 147 -24 60 -20 93 20 132
l35 35 -1 353 c-1 194 -4 508 -8 698 -4 190 -6 346 -5 348 1 1 100 -6 220 -15
l219 -18 6 -135 c4 -74 10 -370 14 -657 5 -288 11 -523 14 -523 4 0 40 19 82
43 312 178 515 489 575 882 21 133 14 392 -15 523 -139 647 -631 1155 -1218
1257 -117 20 -316 18 -423 -4z m240 -696 c139 -46 250 -200 250 -349 0 -86
-23 -147 -79 -208 l-46 -50 -130 12 c-72 6 -133 15 -137 18 -4 4 -8 141 -10
306 l-3 298 55 -6 c30 -4 75 -13 100 -21z m378 -40 c157 -37 276 -137 323
-271 26 -76 40 -344 18 -344 -40 1 -430 38 -433 41 -2 2 -6 136 -8 297 -3 335
-15 304 100 277z m-340 -594 c75 -7 86 -11 117 -41 18 -18 48 -60 66 -94 65
-121 48 -284 -39 -373 -60 -62 -122 -87 -219 -87 -45 -1 -85 3 -90 7 -4 5 -9
141 -11 303 l-3 294 48 -1 c26 0 85 -4 131 -8z"/>
<path d="M2910 2900 c0 -5 5 -10 11 -10 5 0 7 5 4 10 -3 6 -8 10 -11 10 -2 0
-4 -4 -4 -10z"/>
<path d="M3111 855 c5 -4 98 -18 199 -30 30 -3 52 -4 49 0 -4 3 -60 12 -125
20 -134 17 -129 17 -123 10z"/>
<path d="M3272 638 c9 -7 57 -42 107 -77 138 -96 237 -218 242 -296 1 -11 5
-1 10 23 4 24 4 53 0 66 -28 73 -262 267 -351 290 -22 6 -23 5 -8 -6z"/>
<path d="M2638 553 c6 -2 18 -2 25 0 6 3 1 5 -13 5 -14 0 -19 -2 -12 -5z"/>
<path d="M2688 543 c6 -2 18 -2 25 0 6 3 1 5 -13 5 -14 0 -19 -2 -12 -5z"/>
<path d="M2738 533 c6 -2 18 -2 25 0 6 3 1 5 -13 5 -14 0 -19 -2 -12 -5z"/>
<path d="M2918 513 c7 -3 16 -2 19 1 4 3 -2 6 -13 5 -11 0 -14 -3 -6 -6z"/>
<path d="M2988 503 c7 -3 16 -2 19 1 4 3 -2 6 -13 5 -11 0 -14 -3 -6 -6z"/>
<path d="M3047 488 c68 -28 120 -74 137 -124 24 -71 17 -178 -20 -279 -6 -16
-1 -14 25 10 81 75 79 261 -4 334 -46 40 -82 58 -130 65 l-40 6 32 -12z"/>
</g>
</svg>
